<?xml version="1.0" encoding="UTF-8"?>
<svg version="1.1" xmlns="http://www.w3.org/2000/svg" width="100" height="100" viewBox="0 0 500 500">
<path d="M0 0 C7 6 7 6 8 10 C8.928125 9.46375 9.85625 8.9275 10.8125 8.375 C11.45574219 8.01277344 12.09898437 7.65054688 12.76171875 7.27734375 C14.34047559 6.37637781 15.90445537 5.44927439 17.45703125 4.50390625 C31.52657952 -3.75654596 45.97267419 -4.69659673 61.56567383 -0.90478516 C75.23717985 2.75993161 87.62224889 9.70588072 95.375 21.875 C99.33035837 29.07980291 102.38907261 36.75248026 103 45 C103.0515625 45.62648437 103.103125 46.25296875 103.15625 46.8984375 C103.70327148 59.16083558 99.47994383 71.43114237 95.34375 82.78515625 C94.8831752 84.07357307 94.42356817 85.36233618 93.96484375 86.65141296 C92.99186015 89.37968557 92.01263806 92.10559645 91.02807617 94.82971191 C89.47497537 99.12719297 87.93648991 103.42981588 86.40039062 107.73339844 C84.55923092 112.88917686 82.7151943 118.04390419 80.86696625 123.19715309 C76.43327541 135.56126296 72.05827136 147.94566067 67.70092773 160.33688354 C66.53794638 163.64215386 65.37179743 166.94629175 64.20507812 170.25024414 C54.52242974 194.15607952 54.52242974 194.15607952 52 219 C56.1301448 223.96307153 56.1301448 223.96307153 65 224 C80.9451683 218.02056189 88.75672958 205.35634207 95.6875 190.5 C96.81780493 188.01104242 97.91461495 185.50883033 99 183 C99.43602539 181.99864014 99.43602539 181.99864014 99.88085938 180.97705078 C101.61165678 176.99487948 103.31640051 173.00240318 105 169 C111.50838407 163.37912285 114.71276084 162.03191546 124 161 C134 164 134 164 140 171 C142.06411199 177.19233598 140.86169568 182.64739794 138.6875 188.625 C138.42678711 189.34792236 138.16607422 190.07084473 137.89746094 190.81567383 C132.1591008 206.01975206 124.05980461 220.25984272 114 233 C113.36964844 233.81339844 112.73929688 234.62679687 112.08984375 235.46484375 C99.97133246 250.10482873 81.91740961 261.3437422 63 264 C48.24292159 265.24973309 32.51809141 264.02461958 20.2265625 254.953125 C10.44196855 246.43200715 2.88930699 236.15252293 1.82299805 222.78027344 C1.75523973 220.10341483 1.71493422 217.42758022 1.6875 214.75 C1.64399414 213.40421875 1.64399414 213.40421875 1.59960938 212.03125 C1.43706356 194.12620353 9.40648124 176.7092427 15.3125 160.125 C16.21209869 157.58439918 17.10950778 155.04302629 18.00708008 152.50170898 C20.65984848 144.99702 23.32782284 137.49779946 26 130 C26.38248901 128.92659363 26.76497803 127.85318726 27.15905762 126.74725342 C29.18902202 121.05226989 31.22192599 115.35834213 33.2571106 109.66522217 C34.17757405 107.09026738 35.09752632 104.51513051 36.01733398 101.93994141 C36.30997635 101.12078247 36.60261871 100.30162354 36.90412903 99.4576416 C37.4729101 97.86547581 38.04158792 96.27327313 38.6101532 94.68103027 C39.8981646 91.07566502 41.18937244 87.47153207 42.48974609 83.87060547 C43.79670414 80.25126581 45.08677306 76.62605199 46.375 73 C46.73875732 72.00363525 47.10251465 71.00727051 47.47729492 69.98071289 C50.92303005 60.19598826 51.69165181 53.84440482 48 44 C41.26738771 39.5115918 36.01472833 38.28547666 28.125 39.5625 C19.02278091 41.68587926 10.72943318 46.59587472 5 54 C-1.99737247 65.32833381 -5.62638183 78.63034858 -9.9375 91.125 C-11.21146392 94.78714551 -12.48833457 98.44827003 -13.76519775 102.10940552 C-14.62239296 104.56811876 -15.47863464 107.02716465 -16.33392334 109.48654175 C-20.0388733 120.13730997 -23.81746532 130.76055695 -27.625 141.375 C-28.83407894 144.74973333 -30.04228986 148.12477659 -31.25 151.5 C-31.55097092 152.34105286 -31.85194183 153.18210571 -32.16203308 154.04864502 C-35.27406685 162.75302645 -38.35528589 171.46825928 -41.43579102 180.18383789 C-43.93440454 187.25282302 -46.44180552 194.31868439 -48.94969177 201.38438416 C-50.9278503 206.96179478 -52.89303122 212.5435217 -54.84576416 218.12988281 C-56.01245784 221.46082893 -57.18906077 224.78821453 -58.36810303 228.11480713 C-58.9048549 229.63630376 -59.43728881 231.15933219 -59.96490479 232.684021 C-63.9951253 244.32232757 -68.1537861 253.31995315 -78 261 C-87.69040816 264.63390306 -95.64289465 265.23177197 -105 261 C-109.55034105 258.06397063 -113.00348134 254.39459828 -114.55200195 249.11962891 C-116.56107081 239.6140508 -113.54731429 231.5034811 -110.3125 222.625 C-109.81439862 221.22237603 -109.31760351 219.81928759 -108.82202148 218.41577148 C-107.50315997 214.69443188 -106.16444111 210.98056025 -104.82006836 207.26837158 C-103.73937469 204.27909053 -102.66834323 201.28638812 -101.59716797 198.29368591 C-97.06859945 185.64610759 -92.4721859 173.02330531 -87.859375 160.40625 C-82.80118474 146.56416086 -77.82572958 132.70511441 -73.05639648 118.76000977 C-67.58155621 102.7925265 -61.87866643 86.90541329 -56.20831299 71.00657654 C-53.64834558 63.82648696 -51.09953137 56.64249332 -48.5546875 49.45703125 C-47.46979455 46.39627586 -46.3847358 43.3355793 -45.29962158 40.27490234 C-44.60751161 38.32152386 -43.91604979 36.36791559 -43.22528076 34.4140625 C-42.26140514 31.68814509 -41.29501751 28.96312976 -40.328125 26.23828125 C-39.91033279 25.05356987 -39.91033279 25.05356987 -39.48410034 23.84492493 C-32.31763022 3.68659506 -32.31763022 3.68659506 -25.25 0.0625 C-24.20585937 -0.47697266 -24.20585937 -0.47697266 -23.140625 -1.02734375 C-15.18057265 -4.64422885 -7.92192872 -2.67783506 0 0 Z " fill="#03FC05" transform="translate(153,128)"/>
<path d="M0 0 C53.13 0 106.26 0 161 0 C161 7.26 161 14.52 161 22 C157.66636776 23.11121075 155.19162295 23.12305796 151.6789093 23.12025452 C151.03522831 23.12110894 150.39154731 23.12196337 149.72836083 23.12284368 C147.56798387 23.12449294 145.40768428 23.11898617 143.24731445 23.11352539 C141.70009361 23.11324337 140.15287262 23.11340154 138.60565186 23.1139679 C134.40140645 23.1142553 130.19718947 23.10836769 125.99295068 23.10139394 C121.60070454 23.09515101 117.20845778 23.09455585 112.81620789 23.09336853 C104.49709078 23.09025799 96.17798678 23.08204833 87.85887545 23.07201904 C78.38861301 23.06084931 68.91834995 23.05534528 59.44808257 23.05032361 C1.01895948 23.01895948 1.01895948 23.01895948 0 22 C0 14.74 0 7.48 0 0 Z " fill="#05F907" transform="translate(315,364)"/>
</svg>
